{"title":"Kandahar Break 2009.BRRip.XviD.Ac3.Feel-Free","uid":5832623,"size":1254233983,"categoryP":"video","categoryS":"movies","magnet":"?xt=urn:btih:ca7f4e32a8ba22129f6a6d0e4d53c28b77dc6214&amp;dn=Kandahar+Break+2009.BRRip.XviD.Ac3.Feel-Free&amp;tr=udp%3A%2F%2Ftracker.openbittorrent.com%3A80&amp;tr=udp%3A%2F%2Fopen.demonii.com%3A1337&amp;tr=udp%3A%2F%2Ftracker.coppersurfer.tk%3A6969&amp;tr=udp%3A%2F%2Fexodus.desync.com%3A6969","seeders":0,"leechers":0,"uploader":"neon","files":-1,"time":1284580811,"description":"Genre:Romance | Thriller | War\nLanguage: English\n &lt;a href=&quot; http://www.imdb.com/title/tt1490726/&quot; rel=&quot;nofollow&quot; target=&quot;_NEW&quot;&gt; http://www.imdb.com/title/tt1490726/&lt;/a&gt;\nSource:BluRay.x264-AVCHD\n\nGeneral\nComplete name :Kandahar.Break.2009.BRRip.XviD.Ac3.Feel-Free\nFormat : AVI\nFormat/Info : Audio Video Interleave\nFile size : 1.17 GiB\nDuration : 1h 34mn\nOverall bit rate : 1 771 Kbps\nVideo #0\nCodec ID : XVID\nCodec ID/Hint : XviD\nDuration : 1h 34mn\nBit rate : 1 505 Kbps\nWidth : 652 pixels\nHeight : 352 pixels\nDisplay aspect ratio : 1.852\nFrame rate : 24.000 fps\nResolution : 24 bits\nColorimetry : 4:2:0\nScan type : Progressive\nBits/(Pixel*Frame) : 0.273\nStream size : 1 017 MiB (85%)\nWriting library : XviD 1.2.1 (UTC 2008-12-04)\nAudio #1\nID : 1\nFormat : AC-3\nFormat/Info : Audio Coding 3\nCodec ID : 2000\nDuration : 1h 34mn\nBit rate mode : Constant\nBit rate : 256 Kbps\nChannel(s) : 6 channels\nChannel positions : Front: L C R, Surround: L R, LFE\nSampling rate : 48.0 KHz\nStream size : 173 MiB (14%)\nAlignment : Split accross interleaves\nInterleave, duration : 42 ms (1.00 video frame)\nInterleave, preload duration : 500 ms\n\nPlot\nin 1999, a British mine clearance engineer working for the Taliban government in Afghanistan must flee the country when he becomes embroiled in a deadly game of intrigue and betrayal\n","torrent":{"xt":"urn:btih:ca7f4e32a8ba22129f6a6d0e4d53c28b77dc6214","amp;dn":"Kandahar+Break+2009.BRRip.XviD.Ac3.Feel-Free","amp;tr":["udp%3A%2F%2Ftracker.openbittorrent.com%3A80","udp%3A%2F%2Fopen.demonii.com%3A1337","udp%3A%2F%2Ftracker.coppersurfer.tk%3A6969","udp%3A%2F%2Fexodus.desync.com%3A6969"],"infoHash":"ca7f4e32a8ba22129f6a6d0e4d53c28b77dc6214","infoHashBuffer":{"type":"Buffer","data":[202,127,78,50,168,186,34,18,159,106,109,14,77,83,194,139,119,220,98,20]},"announce":[],"urlList":[]}}